<svg width="116" height="116" viewBox="0 0 116 116" fill="none" xmlns="http://www.w3.org/2000/svg">
<circle cx="58" cy="58" r="41" fill="white"/>
<path d="M58 0C25.984 0 0 25.984 0 58C0 90.016 25.984 116 58 116C90.016 116 116 90.016 116 58C116 25.984 90.016 0 58 0ZM58 95.7C53.186 95.7 49.3 91.814 49.3 87H66.7C66.7 91.814 62.814 95.7 58 95.7ZM87 81.2H29V75.4L34.8 69.6V54.462C34.8 42.166 40.774 31.726 52.2 29V26.1C52.2 22.794 54.694 20.3 58 20.3C61.306 20.3 63.8 22.794 63.8 26.1V29C75.226 31.726 81.2 42.224 81.2 54.462V69.6L87 75.4V81.2Z" fill="#0F6FA6"/>
</svg>
