<svg viewBox="0 0 57 57" fill="none" xmlns="http://www.w3.org/2000/svg">
<g filter="url(#filter0_i_78_11)">
<circle cx="28.5" cy="28.5" r="28.5" fill="#FFC212"/>
</g>
<path d="M45.2069 23.6491V37.6519C45.207 39.0796 44.6763 40.4532 43.7239 41.491C42.7714 42.5287 41.4692 43.1519 40.0845 43.2328L39.7771 43.2414H17.2228C15.8359 43.2415 14.5016 42.6952 13.4935 41.7147C12.4854 40.7342 11.88 39.3938 11.8014 37.9684L11.7931 37.6519V23.6491L27.9186 32.3445C28.098 32.4413 28.2975 32.4918 28.5 32.4918C28.7025 32.4918 28.902 32.4413 29.0814 32.3445L45.2069 23.6491ZM17.2228 15.7241H39.7771C41.123 15.724 42.421 16.2383 43.4193 17.1675C44.4176 18.0967 45.0451 19.3744 45.1802 20.7529L28.5 29.7476L11.8198 20.7529C11.9493 19.4292 12.5333 18.1964 13.4667 17.2762C14.4001 16.356 15.6218 15.8087 16.9121 15.7327L17.2228 15.7241H39.7771H17.2228Z" fill="white"/>
<defs>
<filter id="filter0_i_78_11" x="0" y="0" width="57" height="57" filterUnits="userSpaceOnUse" color-interpolation-filters="sRGB">
<feFlood flood-opacity="0" result="BackgroundImageFix"/>
<feBlend mode="normal" in="SourceGraphic" in2="BackgroundImageFix" result="shape"/>
<feColorMatrix in="SourceAlpha" type="matrix" values="0 0 0 0 0 0 0 0 0 0 0 0 0 0 0 0 0 0 127 0" result="hardAlpha"/>
<feMorphology radius="3" operator="dilate" in="SourceAlpha" result="effect1_innerShadow_78_11"/>
<feOffset dx="-3" dy="-10"/>
<feGaussianBlur stdDeviation="1.5"/>
<feComposite in2="hardAlpha" operator="arithmetic" k2="-1" k3="1"/>
<feColorMatrix type="matrix" values="0 0 0 0 0.970833 0 0 0 0 0.233 0 0 0 0 0 0 0 0 0.37 0"/>
<feBlend mode="normal" in2="shape" result="effect1_innerShadow_78_11"/>
</filter>
</defs>
</svg>
