<svg  viewBox="0 0 56 56" fill="none" xmlns="http://www.w3.org/2000/svg">
<g filter="url(#filter0_i_78_12)">
<circle cx="28" cy="28" r="28" fill="#FFC212"/>
</g>
<path d="M20.2768 12.0727C22.2668 13.5229 23.8162 15.5024 25.1394 17.3966L25.9089 18.5178L26.6349 19.5885C26.998 20.119 27.1533 20.7646 27.0711 21.4022C26.9889 22.0399 26.675 22.625 26.1892 23.0461L22.7925 25.5688C22.6284 25.6873 22.5129 25.8613 22.4675 26.0585C22.422 26.2558 22.4497 26.4628 22.5453 26.6412C23.3148 28.0392 24.6832 30.1214 26.2501 31.6883C27.8187 33.2552 29.9984 34.7141 31.4939 35.5707C31.6815 35.6759 31.9022 35.7054 32.1107 35.6529C32.3192 35.6004 32.4998 35.4701 32.6151 35.2886L34.8262 31.9233C35.2327 31.3834 35.8323 31.0216 36.4996 30.9139C37.1668 30.8061 37.8498 30.9607 38.4056 31.3453L39.5599 32.1444C41.717 33.6417 44.0342 35.3426 45.8065 37.6111C46.0876 37.9729 46.2664 38.4035 46.3243 38.8579C46.3822 39.3124 46.317 39.774 46.1356 40.1947C44.6784 43.5949 40.991 46.4901 37.1556 46.3491L36.6333 46.3195L36.2277 46.2847L35.7785 46.2324L35.2893 46.1663L34.7583 46.0792C34.6653 46.0625 34.5725 46.0451 34.4797 46.027L33.8948 45.9017C33.7925 45.8792 33.6903 45.856 33.5883 45.832L32.9511 45.6684L32.2809 45.4769L31.581 45.2505C28.3672 44.1607 24.288 42.0193 20.1027 37.834C15.9191 33.6504 13.7777 29.5713 12.6879 26.3574L12.4616 25.6575L12.2701 24.9873L12.1064 24.3501L11.9706 23.7477C11.9314 23.559 11.8948 23.3698 11.8609 23.1801L11.7739 22.6491L11.7042 22.1599L11.6538 21.7107L11.6189 21.3051L11.5911 20.7828C11.4501 16.9596 14.3766 13.2461 17.7611 11.7959C18.1685 11.62 18.6145 11.553 19.0556 11.6015C19.4966 11.6501 19.9175 11.8124 20.2768 12.0727V12.0727ZM34.4397 18.3315L34.6416 18.3541C35.9089 18.5777 37.0729 19.1967 37.9667 20.1224C38.8606 21.0482 39.4384 22.2331 39.6174 23.5074C39.6812 23.9482 39.5736 24.3967 39.3169 24.7606C39.0601 25.1245 38.6736 25.3762 38.2369 25.4638C37.8003 25.5515 37.3466 25.4684 36.9693 25.2318C36.592 24.9951 36.3197 24.6229 36.2085 24.1916L36.1685 23.9914C36.0984 23.4919 35.8852 23.0234 35.5547 22.6425C35.2241 22.2616 34.7903 21.9845 34.3056 21.8448L34.0358 21.7839C33.5986 21.7064 33.2076 21.4648 32.9426 21.1086C32.6777 20.7523 32.5588 20.3083 32.6104 19.8673C32.662 19.4263 32.8801 19.0217 33.2202 18.7363C33.5602 18.4508 33.9964 18.306 34.4397 18.3315V18.3315ZM34.4536 13.0389C37.224 13.0389 39.881 14.1395 41.84 16.0985C43.7989 18.0574 44.8995 20.7144 44.8995 23.4848C44.899 23.9285 44.7291 24.3554 44.4245 24.678C44.1198 25.0007 43.7035 25.1949 43.2605 25.2209C42.8176 25.2469 42.3814 25.1027 42.0411 24.8179C41.7008 24.5331 41.4821 24.1291 41.4297 23.6885L41.4175 23.4848C41.4182 21.7167 40.7459 20.0146 39.5373 18.7241C38.3286 17.4337 36.6741 16.6515 34.9098 16.5366L34.4536 16.5209C33.9919 16.5209 33.5491 16.3375 33.2226 16.011C32.8961 15.6845 32.7126 15.2416 32.7126 14.7799C32.7126 14.3182 32.8961 13.8753 33.2226 13.5489C33.5491 13.2224 33.9919 13.0389 34.4536 13.0389V13.0389Z" fill="white"/>
<defs>
<filter id="filter0_i_78_12" x="0" y="0" width="56" height="56" filterUnits="userSpaceOnUse" color-interpolation-filters="sRGB">
<feFlood flood-opacity="0" result="BackgroundImageFix"/>
<feBlend mode="normal" in="SourceGraphic" in2="BackgroundImageFix" result="shape"/>
<feColorMatrix in="SourceAlpha" type="matrix" values="0 0 0 0 0 0 0 0 0 0 0 0 0 0 0 0 0 0 127 0" result="hardAlpha"/>
<feMorphology radius="3" operator="dilate" in="SourceAlpha" result="effect1_innerShadow_78_12"/>
<feOffset dx="-3" dy="-10"/>
<feGaussianBlur stdDeviation="1.5"/>
<feComposite in2="hardAlpha" operator="arithmetic" k2="-1" k3="1"/>
<feColorMatrix type="matrix" values="0 0 0 0 0.970833 0 0 0 0 0.233 0 0 0 0 0 0 0 0 0.37 0"/>
<feBlend mode="normal" in2="shape" result="effect1_innerShadow_78_12"/>
</filter>
</defs>
</svg>
